# Blender v2.78 (sub 0) OBJ File: ''
# www.blender.org
o Circle
v -0.035069 1.000035 -1.959095
v -0.035069 1.000035 0.262418
v 1.379144 1.000035 0.262418
v 1.379144 1.000035 -1.959095
v -0.584969 1.000035 -2.508994
v -0.584969 1.000035 0.812317
v 1.929044 1.000035 0.812317
v 1.929044 1.000035 -2.508994
v -0.035069 1.000035 0.262418
v -0.035069 1.000035 -1.959095
v 1.379144 1.000035 0.262418
v 1.379144 1.000035 -1.959095
v -0.584969 1.000035 0.812317
v -0.584969 1.000035 -2.508994
v 1.929044 1.000035 0.812317
v 1.929044 1.000035 -2.508994
v -0.035069 1.073996 0.262418
v -0.035069 1.073996 -1.959095
v 1.379144 1.073996 0.262418
v 1.379144 1.073996 -1.959095
v -0.584969 1.073996 0.812317
v -0.584969 1.073996 -2.508994
v 1.929044 1.073996 0.812317
v 1.929044 1.073996 -2.508994
vn 0.0000 -1.0000 0.0000
vn 1.0000 0.0000 0.0000
vn -1.0000 0.0000 0.0000
vn 0.0000 0.0000 1.0000
vn 0.0000 1.0000 0.0000
vn 0.0000 0.0000 -1.0000
s off
f 5//1 4//1 1//1
f 7//1 2//1 3//1
f 8//1 3//1 4//1
f 6//1 1//1 2//1
f 10//2 17//2 9//2
f 11//3 20//3 12//3
f 13//3 22//3 14//3
f 16//2 23//2 15//2
f 8//4 14//4 16//4
f 6//4 15//4 13//4
f 1//4 12//4 10//4
f 3//4 9//4 11//4
f 7//4 16//4 15//4
f 5//4 13//4 14//4
f 4//4 11//4 12//4
f 2//4 10//4 9//4
f 18//5 24//5 22//5
f 17//5 23//5 19//5
f 19//5 24//5 20//5
f 18//5 21//5 17//5
f 14//6 24//6 16//6
f 15//4 21//4 13//4
f 12//4 18//4 10//4
f 9//6 19//6 11//6
f 5//1 8//1 4//1
f 7//1 6//1 2//1
f 8//1 7//1 3//1
f 6//1 5//1 1//1
f 10//2 18//2 17//2
f 11//3 19//3 20//3
f 13//3 21//3 22//3
f 16//2 24//2 23//2
f 8//4 5//4 14//4
f 6//4 7//4 15//4
f 1//4 4//4 12//4
f 3//4 2//4 9//4
f 7//4 8//4 16//4
f 5//4 6//4 13//4
f 4//4 3//4 11//4
f 2//4 1//4 10//4
f 18//5 20//5 24//5
f 17//5 21//5 23//5
f 19//5 23//5 24//5
f 18//5 22//5 21//5
f 14//6 22//6 24//6
f 15//4 23//4 21//4
f 12//4 20//4 18//4
f 9//6 17//6 19//6
